<?xml version="1.0" encoding="UTF-8"?>
<svg xmlns="http://www.w3.org/2000/svg" viewBox="0 0 1175.44 2891.38">
  <defs>
    <style>
      .cls-1 {
        fill: #fff;
      }

      .cls-2 {
        fill: #e6e1f5;
      }
    </style>
  </defs>
  <g id="_Слой_3" data-name="Слой 3">
    <path class="cls-2" d="M447.22,682.19s67.2,106.24,131.29,110.44,139.11-91.29,139.11-91.29c0,0,3.02,32.76,29.83,67.92s54.7,86.63,20.47,146.25c-34.23,59.62-33.49,49.98-38.12,63.1-4.63,13.12-12.25,34.77-13.04,38.04s-5.47-47.93-153.33-36.38c-147.85,11.55-133.87,48.04-133.87,48.04,0,0-14.54-9.51-16.79-32.65-2.26-23.14-6.56-49.44-17.51-63.9s-47.87-70.9-7.02-128.74,63.12-79.77,58.98-120.81Z"/>
  </g>
  <g id="_Слой_2" data-name="Слой 2">
    <path d="M844.09,2150.7c13.27,25.18,26.1,50.6,34.28,78.02,1.34,4.79,2.36,9.81,2.4,14.78-.38,23.24-8.58,46.46-4.67,69.43,1.49,8.64,4.98,16.65,10.79,22.86,6.29,6.69,13,13.22,19.85,19.61,16.91,16.13,35.49,31.84,49.29,51.26,8.46,11.69,12.36,26.07,16.62,39.49,7.84,23.9,18.06,59.74,42.22,71.29,7.98,3.66,15.47,3.64,23.33-.56,21.15-11.67,36.98-44.86,45.4-66.91,1.52-4.15,3.04-8.63,3.97-12.85.41-1.59.25-2.66-.4-4.33-2.46-5.87-6.8-11.05-11.01-16.08-2.98-3.47-6.13-6.85-9.36-10.18-19.59-20.31-41.39-37.69-63.19-55.68-28.78-24.82-55.67-57.18-60.49-96.26-5.25-37.56-6.57-75.42-5.51-113.25,0,0,1,0,1,0,2.4,38.66,5.77,77.32,12.9,115.4,9.23,45.17,46.37,76.4,80.84,103.88,14.64,12.25,28.55,25.13,41.69,39.01,7.52,8.38,24.33,25.76,22.88,37.37-5.53,24.31-25.05,60.17-43.93,76.48-7.45,6.51-16.94,12.01-27.27,11.46-15.2-1.13-26.95-12.99-34.5-25.3-9.9-16.35-15.57-34.59-21.64-52.51-3.48-9.85-6.49-20.08-11.69-29.14-2.8-4.94-6.38-9.64-10.12-13.89-14-15.75-30.85-28.58-46.64-42.57-7.09-6.3-14.15-12.64-20.8-19.65-7.14-7.43-11.44-17.46-12.98-27.5-3.96-24.17,4.65-47.33,6.1-70.94.14-4.39-.6-8.84-1.61-13.11-2.1-8.98-5.08-17.91-8.14-26.66-6.29-17.66-13.34-35.14-20.53-52.55,0,0,.9-.44.9-.44h0Z"/>
    <path d="M362.52,1724.02c2.64,43.18,2.78,86.46,1.13,129.67-1.93,32.34-4.78,64.71-3.06,97.13.54,15.54,2.2,32.79,3.98,48.32,2.14,15.56,4.91,32.5,6.93,47.97,2.66,18.49,5.82,45.62,9.35,63.55,1.48,6.72,2.68,13.01,6.15,18.49,0,0,.39.53.39.53.13.21.23.23.34.37.2.26.55.52.83.75,3.19,2.4,6.96,3.74,10.88,4.98,12.36,3.65,25.48,4.91,38.39,4.56,15.63-.66,31.73-3.72,44.36-13.76,0,0,.85.85.85.85-3.52,4.24-7.97,7.75-12.77,10.59-9.64,5.65-20.72,8.71-31.74,10.24-16.93,2.26-42.37,1.67-57.08-7.82-3.65-2.49-6.16-6.54-7.95-10.44-2.59-5.67-3.92-11.21-5.19-16.69-4.49-21.64-5.89-43.13-8.08-64.9-1.47-16.21-3.36-32.39-3.83-48.67,0,0-.15-16.33-.15-16.33.24-18.96.51-46.23.02-64.96-.37-21.62-2.2-43.27-2.63-64.91-.47-21.64.47-43.26,1.64-64.87,1.27-21.63,2.99-43.22,6.04-64.71,0,0,1.2.05,1.2.05h0Z"/>
    <path d="M699.51,1167.09c15.07,34.11,26.3,69.59,38.11,104.77,8.8,24.69,16.08,50.07,22.14,75.55,5.44,24.34,10.89,48.91,12.05,73.92,0,0-.98.19-.98.19-9.89-42.88-22.94-85.05-36.08-127.04-6.99-20.84-13.41-42.08-19.2-63.27-5.92-21.23-11.57-42.52-17.01-63.88,0,0,.97-.25.97-.25h0Z"/>
    <path d="M422.3,1025.76c13.33,29.35,3.75,66.62-12.02,93.21-5.48,9.27-11.87,17.96-19.23,25.74,5.35-9.27,10.53-18.48,15.07-27.96,13.44-28.01,22.52-59.93,16.18-90.98h0Z"/>
    <path d="M185.63,1018.78c10.96-1.26,18.98,9.65,23.66,18.13,1.1,1.86,2.49,4.98,3.44,6.97,11.21,25.37,24.22,50.19,39.58,73.19,8.34,12.54,17.98,23.97,28.07,35.04,10.46,11.08,21.23,21.88,30.67,33.92,6.32,8.15,12.64,16.38,16.88,25.91,0,0-.89.46-.89.46-6.5-7.69-13.96-14.62-21.21-21.61-12.75-12.49-26.77-23.8-38.24-37.54-14.5-18.15-26.39-38.2-36.97-58.78-8.01-16.03-15.06-32.46-21.19-49.28-.74-1.86-1.96-5.1-2.88-6.9-3.64-7.57-8.68-15.76-17.15-18.25-1.16-.28-2.43-.44-3.54-.3,0,0-.23-.97-.23-.97h0Z"/>
    <path d="M388.24,775.55c-35.66,46.61-73.88,91.06-113.91,133.96-13.73,13.61-26.3,28.34-38.34,43.53-11.87,15.23-23.76,30.67-32.6,47.88-2.71,5.74-5.6,11.83-4.99,18.35-1.76-6.46.43-13.27,2.44-19.42,6.83-18.56,17.68-35.35,28.85-51.51,11.31-16.12,23.67-31.5,37.46-45.61,39.62-43.08,78.88-86.51,121.09-127.18h0Z"/>
    <path d="M718.84,1008.66c1.73-7.86,3.79-15.61,5.88-23.35,1-3.91,2.36-7.93,4.08-11.64,5.11-11.07,12.88-20.81,19.33-30.84,13.11-19.64,22.52-41.53,29.08-64.16,10.74-38.76-11.82-76.34-33.5-106.99-18.32-26.03-27.2-32.79-29.99-66.35-1.68-20.39-.37-40.47,1.48-60.61.49-3.25.11-6.35-1.71-9.03-3.95-5.73-12.39-8.27-19.31-7.92-1.42.14-3.65.43-4.59,1.32-.05.07-.1.12-.09.12-.02,0,0,0-.01,0-.14,1.51-.05,3.06,0,4.6.69,11.9,2.4,23.79,4.24,35.56,1.2,7.94,3.23,15.66,4.77,23.53,3.42,24,3.53,48.14,2.99,72.33-.53,12.14-.96,24.53-3.67,36.5-8.53,33.18-45.11,100.01-79.98,108.91-.79.18-1.86.43-2.66.51-6.76.87-13.56,1.3-20.39,1.06-25.36-.44-50.06-11.58-67.92-29.43-17.71-17.2-30.4-38.97-41.45-60.57-5.43-11.11-11.09-21.56-15.6-33.14-12.05-35.1-7.99-73.65-2.62-109.56,3.14-21.65,8.97-42.86,12.36-64.27,0,0,.02-.44.02-.44-.01-.51-.14-.77-.54-1.26-1.49-1.63-5.04-2.9-7.59-3.3-6.13-1.16-14.26-.61-19.42,2.55-1.54,1.11-2.29,1.8-2.49,3.29-.04.38,0,.82.07,1.22,1.52,8.27,2.44,16.52,2.98,24.8,1.73,26.44-.66,53.15-7.12,78.85-3.42,14.07-10.76,27.08-18.51,39.04-13.03,20-28.34,38.81-38.95,60.02-18.92,36.86-18.54,77.88,11.81,108.48,5.54,5.62,11.72,10.77,18.52,14.81,0,0-.46.89-.46.89-7.17-3.77-13.66-8.63-19.59-14.13-25.52-23.47-33.53-56.7-24.55-89.85,6.14-23.68,19.81-44.78,33.19-64.69,10.81-16.29,22.36-32.53,28.26-51.24,7.22-26.41,9.16-54.22,7.27-81.48-.57-7.81-1.51-15.61-2.95-23.19-.24-1.4-.46-2.91-.31-4.36.95-10.26,11.84-14.74,20.6-15.78,10.02-1.19,25.68.23,29.85,11.44,1.29,3.65.23,8.1-.33,11.54-9.98,49.69-23.38,101.62-12.72,152.06,1.79,7.62,4.27,14.33,7.82,21.43,3.43,7.21,6.89,14.37,10.49,21.43,17.21,33.69,39.65,69.98,77.87,80.97,11.81,3.44,24.43,4.23,36.7,3.04.71-.04,2.11-.22,2.81-.3,5.46-.48,9.77-2.69,14.47-5.61,15.94-10.79,27.73-26.92,38.18-42.97,10.32-16.58,19.78-34.08,25.49-52.74,2.92-11.38,3.86-23.14,4.83-34.89,1.49-23.68,2.39-47.83-.38-71.43-3.18-15.7-5.81-31.52-7.4-47.47-.48-5.55-1.25-11.12-1.1-16.74,0,0,.04-.44.04-.44.04-.24.08-.51.18-.72.63-1.72,2.72-2.61,4.04-2.99,11.35-2.76,27.14.83,31.25,13.09,2.03,6.26.17,12.71.09,19.08-.95,15.74-1.31,31.63.1,47.3,1.22,11.45,2.88,22.81,8.49,32.83,10.5,16.8,23.61,32.18,33.94,49.26,18.55,29.11,31.92,66.06,19.15,100.22-6.9,21.24-16.68,41.72-29.64,59.93-6.86,9.89-14.47,18.86-19.97,29.39-4.93,10.66-9.04,22.11-14.26,32.77,0,0-.95-.32-.95-.32h0Z"/>
    <path d="M483.28,327.95c-.38,34.36.92,68.92,6.07,102.9,1.78,11.21,4.04,22.42,7.5,33.21,1.4,4.47,4.34,11.47,6.17,15.85,3.99,9.33,9.15,22.66,13.28,31.72,2.32,5.16,4.77,10.24,7.75,14.68,5.78,8.51,15.02,15.03,25.35,16.39,5.07.65,10.36.24,15.74-.74,5.4-.94,10.82-2.47,16.76-3.6l-.72.2c6.39-2.2,12.42-3,18.7-4.61,5.92-1.41,11.64-3.19,17.09-5.63,11.07-4.87,20.71-12.3,28.84-21.27,0,0-.17.23-.17.23l3.15-4.4c7.2-10.4,13.77-21.39,18.39-33.2,0,0,.87.23.87.23-1.53,7.27-4.17,14.2-7.14,20.99-3.08,6.85-6.61,13.52-10.62,19.88-14.82,19.56-33.78,29.24-57.4,34.22-3.43.8-6.25,1.61-9.24,2.56-18.25,4.16-36.25,8.75-53-3.66-10.44-6.85-16.3-18.39-20.78-29.48-2.23-5.38-4.29-10.76-6.35-16.14-2.78-7.47-8.11-20.93-10.71-28.35-2.24-6.9-4-14.16-5.36-21.23-3.22-17.06-4.72-34.41-5.51-51.71-1-23.04-.87-46.08.44-69.07l.9.04h0Z"/>
    <path d="M587.46,204.54c-39.74-19.35-85.86-20.81-113.65,18.38-2.15,3.02-4.5,6.53-6.37,9.77-19.38,34.04-38.29,69.26-51.31,106.08-6.92,19.68-12.39,40.5-11.86,61.23.99,26.42,6.35,53.29,13.49,78.85,3.97,14.41,17.28,57.68,32.23,61.23.04,0,.18.01.09.01-.08.03-.29,0-1.17.3-1.63.58-3.14,2.15-3.68,3.84-.4,1.11-.42,2.48-.15,3.16-1.82-4.13-4.21-8.27-5.36-13.1-.85-3.3-1.24-6.89-.93-10.46.29-3.57,1.28-7.04,2.71-10.15l6.13-13.34,5.81,13.16c5.03,10.66,16.74,34.22,29.02,36.2,0,0,.62.03.62.03l.43.02s0,0-.03,0c-.05,0-.1.01-.33.06-2.58.53-4.14,3.76-2.82,6.2.12.23.19.33.25.43.14.21.32.42.49.59.28.27.32.28.39.33.05.03.05.03.04.02-.02-.02-.09-.07-.16-.12-7.02-4.18-10.83-12.03-10.51-19.89-.03-7.03,3.54-15.87,5.52-22.47,0,0,2.58,10.67,2.58,10.67.02.09.11.36.19.55,4.36,11.38,16.21,18.11,28.13,18.44,4.22.23,8.52-.14,12.77-.91,0,0,.23.97.23.97-8.47,2.06-17.61,2.57-25.96-.29-8.37-2.89-15.45-9.27-18.88-17.51,0,0,1.09-.04,1.09-.04-2.81,9.6-2.27,20.95,7.47,26.23.24.19.61.3.83.69.11.16.11.57-.05.73-.32.33-.41.25-.51.3-.18.04-.3.04-.43.05-3.99.31-7.92-1.25-11.14-3.5-6.03-4.21-10.63-10.01-14.82-15.94-4.13-5.97-7.77-12.23-10.99-18.75l1.3-.02c-4.28,9.44-.8,18.34,3.96,26.8.72,1.37,1.7,3.94-.41,4.66-11.15,1.8-20.03-12.15-24.86-20.43-10.67-19.4-17.12-40.72-22.56-62.06-5.16-21.43-9.27-43.22-10.01-65.32-.29-52.23,30.95-109.06,56.33-153.63,11.58-19.85,21.57-38.02,42.41-49.84,24.46-14.16,54.94-11.11,80.12-.46,5.09,2.15,10.07,4.52,14.82,7.4l-.53.85h0Z"/>
    <path d="M582.77,206.1c20.51-10.76,45.1-15.05,67.72-8.9,15.1,3.99,29.77,10.84,41.56,21.31,25.23,22.29,37.85,54.88,47.3,86.36,9.8,34.87,25.94,67.55,41.43,100.25,3.54,7.41,11.64,24.05,14.87,31.32,4.14,9.51,7.6,16.92,7.88,27.9.61,17.09-7.13,33.82-17.93,46.41-6.99,8.33-15.35,15.08-23.57,22.12-6.19,5.16-12.4,10.27-19.24,14.74-3.32,2.12-8.67,5.41-12.19,1.53-1.61-1.86-1.5-4.23-.63-6.28,7.6-9.13,21.47-28.26,17.74-40.41,0,0,7.53.78,7.53.78-3.98,6.08-8.07,11.92-12.32,17.74-10.82,14.47-21.87,29.08-36.1,40.49-2.97,2.27-6.12,4.41-9.88,5.94,0,0-8.42,3.43-8.42,3.43,3.8-6.42,8.09-13.59,11.08-20.41,3.75-8.46,7.16-17.6,7.54-26.83.12-4.48-.77-9-3.62-12.06,0,0,3.38-1.34,3.38-1.34-.1,1.86-.32,3.52-.61,5.24-2.92,18.69-15.22,36.11-33.6,42.02-6.41,2.22-13.14,3.19-19.83,3.37,6.67-.57,13.29-1.93,19.43-4.46,20.66-8.08,31.41-29.45,30.74-50.87,0,0,3.32,3.29,3.32,3.29,1.98,1.96,3.36,4.45,4.17,7.01,3.45,12.3-1.3,25.5-5.73,36.85-1.9,4.58-3.95,9-6.36,13.44,0,0-3.84-4.39-3.84-4.39,18.16-8.89,42.24-45.28,53.5-62.99,0,0,4.51-7.25,4.51-7.25l3.03,8.03c5.59,15.78-8.7,36.71-18.11,48.65,0,0,.78-1.31.78-1.31l.08-.23.03-.11c.07-.28.1-.45.11-.82.11-2.09-2.13-4.23-4.2-3.92,2.83-1.39,6.58-4.08,9.51-6.39,8.13-6.36,16.04-13.25,23.81-20.13,10.96-9.77,20.65-22.22,24.29-36.41,2.23-8.6,2.33-17.81-.43-26.25-1.45-4.01-2.98-7.97-4.86-12.12-19.11-41.87-41.13-83.3-53.8-127.78-8.61-32.38-19.76-66.37-44.52-90.02-16.1-14.92-39.05-24.81-61.07-25.6-15.17-.37-30.6,2.8-44.47,9.04h0Z"/>
    <path d="M543.7,243.07c4.16,22,10.74,44.03,24.03,62.17,4.42,5.88,10.11,10.86,15.39,16.01,21.97,20.69,45.2,39.87,67.05,60.85,11.09,10.62,20.97,22.34,29.86,34.9,20.48,29.15,24.7,56.05,6.06,87.55-5.6,9.86-11.26,19.69-17.38,29.24-2.12,3.12-4.03,6.45-6.65,9.18.64-.69,1.11-1.52,1.61-2.31,3.38-5.67,6.32-11.58,9.32-17.45,4.92-10.09,10.4-20.01,14.35-30.53,5.1-13.58,6.46-28.65,1.76-42.45-5.74-17.52-17.39-32.3-29.22-46.21-9.67-11.43-20.54-21.59-31.55-31.75-16.05-14.98-33.94-31.3-49.18-46.98-5.26-5.53-10.75-11.06-15.1-17.38-12.7-19.04-18.27-42.32-20.34-64.84h0Z"/>
    <path d="M539.39,266.16c-15,15.55-32.28,28.71-48.27,42.85-9.85,8.9-19.57,17.74-26.4,28.92-16.74,29.08-24.66,65.87-11.13,97.68,1.97,4.88,4.47,9.45,7.18,14.14,2.61,4.7,5.29,9.36,7.99,14,2,3.25,3.76,6.71,6.25,9.61.08.1.29.17.17.17-.09.06-.05.09-.05.02.05-.55-.14-1.1-.26-1.63-.17-.65-.37-1.29-.59-1.93.53,1.07,1.11,2.14,1.36,3.32.02.28.11.53-.27.74-.24.07-.36-.01-.47-.05-1.13-.69-1.93-1.79-2.8-2.75-5.15-6.27-9.68-13-14.28-19.67-3.01-4.41-6.02-9.12-8.44-14.06-16.42-32.87-8.7-72.64,9.57-103.09,4.38-7.15,10.28-13.27,16.27-18.95,19.95-18.35,43.09-32.57,64.17-49.33h0Z"/>
    <g>
      <path class="cls-1" d="M573.09,237.35s14.46,37.32,51.78,53.64,61.57,28.45,70.9,41.51"/>
      <path d="M573.46,237.21c12.15,16.86,26.58,32.15,44.75,42.4,6.81,3.93,14.46,6.82,21.69,10.28,9.1,4.34,18.1,8.9,26.63,14.32,5.09,3.09,9.99,6.57,14.64,10.31,5.92,4.97,11.7,10.62,14.93,17.76,0,0-.65.46-.65.46-1.97-2.62-4.31-4.94-6.78-7.11-7.64-6.32-16.31-11.21-25.08-15.8-14.66-7.76-30.14-13.77-45.04-21.08-1.34-.62-3.04-1.78-4.33-2.52-2.58-1.41-5.87-3.9-8.3-5.61-9.19-7.17-17.28-15.85-23.72-25.56-3.68-5.56-6.93-11.39-9.47-17.58,0,0,.75-.29.75-.29h0Z"/>
    </g>
    <path d="M422.66,367.26c-4.67,33.67-3.27,69.15,11.32,100.28,1.47,3.2,3.29,6.78,5.05,9.82.6,1.08,1.22,2.15,1.82,3.24-3.29-3.62-6.41-7.72-9.02-11.89-18.26-29.06-20.37-69.42-9.17-101.46h0Z"/>
    <path d="M482.9,604.85c15.27,1.21,26.07-11.1,30.97-24.35,1.94-4.98,2.98-10.24,4.08-15.46,1.6-7.03,3.1-14.17,4.7-21.21.42-1.8.83-3.6,1.4-5.41l.6.03c.97,5.56,1.22,11.18.88,16.79-.35,9.46-3.1,18.62-7.25,27.17-4.01,8.58-10.18,16.73-18.92,20.86-5.14,2.38-11.05,3.43-16.59,2.17,0,0,.13-.59.13-.59h0Z"/>
    <path d="M657.59,507.15c-.38,28.45-1.39,82.13,17.5,104.05,3.09,3.46,6.88,6.04,11.29,7.36,7.26,3.73,15.14,6.68,23.28,9.18,24.52,7.6,50.06,10.8,75,17.34,16.26,4.34,33.66,11.28,43.63,25.72.84,1.46,1.9,3,2.69,4.48.84,1.83,2.21,4.51,2.76,6.44,1.12,2.3,3.2,13.46,3.82,16.09,11.65,58.89,19.96,118.74,21.17,178.83.47,17.17.15,34.39-.93,51.54-.02.3-.28.53-.59.52-.27-.02-.49-.23-.51-.49-2.57-25.35-5.16-51.23-8.27-76.51-4.76-38.93-11.1-88.13-16.26-126.97,0,0-3.59-25.36-3.59-25.36-.65-4.11-1.7-14.39-3.25-18.14-2.78-8.58-8.78-15.82-16.12-20.96-7.65-5.49-16.56-9.04-25.52-11.81-16.26-4.88-33.26-7.12-50.28-9.3-17.31-2.35-34.75-4.44-51.01-11.86,0,0,.78.3.78.3-6.04-1.59-11.5-5.27-15.47-9.78-17.13-20.24-17.31-54.24-15.73-79.21.82-10.64,2.18-21.2,4.5-31.6.07-.3.36-.48.66-.42.27.06.44.3.43.57h0Z"/>
    <path d="M546.72,364.48c7.37,18.51,7.48,38.97,5.82,58.57-.32,3.97-.88,7.9-1.8,11.79-.45,2.18-1.46,4.74-1.44,6.81,0,.12-.05.11-.15.1-.1,0-.17.06-.05.14.23.2.99.26,1.78.18,2.75-.3,5.38-1.35,8.13-2.26,0,0,.42.56.42.56-3.26,4.45-12,10.79-15.74,3.43-1.5-3.65-.55-6.94,0-10.47,1.33-7.5,3.39-14.96,4.18-22.62,1.68-15.24,2.07-31.01-1.79-45.99,0,0,.65-.26.65-.26h0Z"/>
    <path d="M695.76,375.27c21.08,9.51,41.46,28.17,46.28,51.57,1.65,7.88,1.16,16.09-1.04,23.65.97-7.82.75-15.68-1.24-23.12-6.15-22.81-24.82-39.55-44-52.09h0Z"/>
    <path d="M619.37,225.89c22.51-4.77,49.14,3.18,61.75,23.32,1.8,2.79,3.22,5.8,4.38,8.87-3.76-5.38-7.87-10.34-12.71-14.45-14.72-12.64-34.35-17.12-53.42-17.74h0Z"/>
    <path d="M513.84,230.55c-21.05,13.66-38.72,29.45-45.71,54.38-2.27-26.35,21.16-49.26,45.71-54.38h0Z"/>
    <path d="M474.27,605.93c-38.62,3.87-79.38,15.7-108.88,41.71-11.24,10.22-21.33,21.74-31.24,33.3-12.14,13.97-23.81,28.34-35.28,42.9-30.86,38.69-60.59,78.31-89.51,118.47-14.35,20.01-28.52,40.24-40.96,61.48-19.34,32.32-42.66,61.2-61.81,93.28-3.09,5.31-5.93,10.74-8.19,16.39-2.17,5.57-4.08,11.63-2.72,17.6,0,0-.95.31-.95.31-.99-3.08-.98-6.33-.62-9.45,1.3-9.34,5.38-18.01,9.52-26.36,17.37-33.04,39.79-63.13,58.1-95.59,5.94-10.82,12.44-21.74,19.17-32.03,34.1-52,71.42-101.85,110.63-150.1,19.78-23.96,39.76-47.94,62.29-69.42,4.56-4.24,9.27-8.38,14.41-11.96,20.4-14.52,44.48-23.03,68.91-27.72,12.25-2.27,24.65-3.73,37.15-3.84,0,0-.01,1-.01,1h0Z"/>
    <path d="M398.63,933.84c6.24,15.49,11.77,31.25,16.75,47.24,3.02,10.64,6.59,21.5,7.33,32.77,0,.54-.09,2.15,0,2.66.01.19.08.01-.16-.31-.23-.35-.71-.57-.78-.57-.11-.01.14-.03.37-.06,6.44-1.82,12.32-5.89,18.35-9.03,11.06-6.13,22.29-11.94,34.08-16.73,15.68-6.6,32.44-10.57,49.29-12.87,16.62-2.49,33.36-4.34,50.17-5.11,49.46-1.98,104.95,3.88,142.72,38.98-54.56-38.79-128.29-32.86-191.39-23.98-8.1,1.23-16.15,2.42-24.1,4.42-15.84,3.9-31.02,10.1-45.75,17.19-7.45,3.57-14.72,7.43-22.48,11.04-3.18,1.39-6.3,2.91-10.01,3.4-4.93.6-8.02-2.89-7.37-7.75,0,0,.09-1.26.09-1.26-.21-10.61-2.83-21.03-5.07-31.52-3.62-16.21-7.89-32.32-12.03-48.49h0Z"/>
    <path d="M557.94,810.68c8.79,4.75,15.02,12.77,19.62,21.37,7.28,14.11,9.86,30.97,6.01,46.45-.36,1.54-1.09,3.56-1.57,5.07-.33.83-.61,1.66-.98,2.48l-.7-.05c.03-1.74.1-5.86.13-7.53.03-.63,0-1.88-.05-2.5-.23-8.26-1.18-16.75-3.27-24.76-1.35-5.51-3.26-11.39-5.48-16.6-2.27-5.36-5.04-10.56-8.22-15.43-1.83-2.78-3.77-5.53-5.98-8l.5-.49h0Z"/>
    <path d="M624.64,811.2c-19.66,21.7-20.7,47.08-23.16,74.78,0,0-.59.11-.59.11s-.93-5.16-.93-5.16c-2.96-18.85-1.61-39.54,9.33-55.76,3.9-5.83,8.9-11.03,15.08-14.5l.27.54h0Z"/>
    <path d="M99.14,1019.52c-2.94,8.69-.99,18.28,2.18,26.64,0,0,1.29,3.14,1.29,3.14,0,0,1.52,3.05,1.52,3.05.37.8,1.14,2.26,1.6,3.01,2.49,4.63,6.46,10.08,9.53,14.43,5.45,7.63,11.06,15.14,16.81,22.52,8.7,10.97,17.47,21.95,26.73,32.46,4.62,5.27,9.46,10.33,14.59,15.11,3.35,3.06,12.56,10.69,16.2,13.76,16.33,13.71,32.76,27.53,47.72,42.93,15.05,15.88,29.22,34.38,32.71,56.72,2.81,23.94-1.27,47.74-2.03,71.49-.86,23.51.49,49.84,17.59,67.8.37.45.8.84,1.22,1.23,0,0,1.26,1.19,1.26,1.19,0,0,1.27,1.21,1.27,1.21.42.4.9.74,1.34,1.12,0,0,2.74,2.22,2.74,2.22,0,0-.52.85-.52.85-23.46-11.52-32.01-36.76-33.94-61.26-1.16-14.36-.64-28.77.18-43.1.69-13.95,2.18-27.81.96-41.53-1.49-13.48-7.94-25.42-15.23-36.91-15.28-23.54-35.11-44.15-57.29-61.45-7.47-5.9-15.5-11.01-22.89-17.02-14.96-12-28.25-26.02-39.66-41.4-7.18-9.54-13.85-19.45-19.95-29.71-6.18-10.54-11.03-22.44-10.59-34.87.23-4.92,1.16-9.88,3.81-14.12,0,0,.86.5.86.5h0Z"/>
    <path d="M714.3,1012.7c-13.13,35.48-21.93,73.05-21.28,111.03.18,12.61,1.68,25.17,4.02,37.77-18.49-46.64-7.89-106.42,17.26-148.8h0Z"/>
    <path d="M696.43,1169.41c-36.6,27.26-83.72,43.77-129.4,44.92-9.73.16-19.58-.22-29.22-1.42-5.75-.61-14.94-2.18-20.75-3.05-18.66-3.24-37.95-7.29-56.24-12.28-18.63-5.15-37.28-11.5-54.75-20.29-9.96-5-19.73-10.93-27.95-18.53,0,0,1.06.88,1.06.88.55.45,1.53.84,2.31.89.83.05,1.19-.04,1.29-.06-4.65,3.13-8.67,8.41-12.32,13.02-16.4,21.81-33.02,44.26-43.97,69.38-11.01,24.89-17.7,51.66-20.76,78.71-1.83,15.05-2.68,30.94-3.16,46.1-.63,18.48-.49,37.26.46,55.72,1.27,24.6,3.59,49.51,7.76,73.81,1.27,7.56,2.86,15.08,4.71,22.48,4.51,16.5,9.99,32.97,14.48,49.47,8.61,30.27,16.66,60.7,23.62,91.39,2.73,12.31,5.43,24.62,7.34,37.1.9,6.28,1.94,12.54,1.72,18.93,0,0-1.1-.02-1.1-.02.03-3.07-.46-6.18-.9-9.27-1.52-9.28-3.67-18.44-5.91-27.57-9.16-36.52-20.02-72.6-31.22-108.55-7.83-25.52-17.68-50.52-22-76.97-3.02-16.81-5.3-34.4-6.83-51.4-3.02-34.44-3.67-69.12-1.31-103.62,2.77-47.08,14.91-94.36,41.3-133.91,6.94-10.51,14.35-20.63,21.8-30.79,4.79-5.89,20.37-29.3,28.67-22.98,20.32,18.91,56.47,31.35,83.11,38.99,16.27,4.68,33.63,8.53,50.22,11.78,5.58,1.02,14.72,2.76,20.33,3.54,10.13,1.51,20.54,2.2,30.79,2.09,30.93-.23,61.65-7.51,89.98-19.76,12.56-5.5,24.87-11.86,36.17-19.62,0,0,.65.89.65.89h0Z"/>
    <path d="M540.58,1421.47c.51,37.45-1.43,75.06-4.48,112.36-4.11,46.71-9.35,93.83-20.87,139.63-4.66,17.7-10.13,36.27-14.66,53.98-9.21,35.52-18.89,72.71-26.41,108.53-.96,4.55-1.81,9.12-2.53,13.7-.67,4.49-1.54,9.19-1.03,13.69,0,0-.96.29-.96.29-.88-3.56-.65-7.07-.55-10.63.27-5.85.91-11.68,1.63-17.49,7.54-55.57,20.87-110.28,34.97-164.5,14.95-63.63,21.61-128.93,28.6-193.84,1.93-18.58,3.71-37.19,5.3-55.8l1,.08h0Z"/>
    <path d="M551.75,1454.73c30.4,66.31,57.45,133.81,89.14,199.4,10.66,21.29,22.32,43.51,33.01,64.83,21.48,42.82,43.05,88.14,63.5,131.42,3.03,6.46,6.41,13.28,9.57,19.69,1.09,2.18,2.28,4.28,3.42,6.44,0,0-.82.57-.82.57-10.8-16.27-19.85-33.52-29.29-50.57-21.46-39.47-47.27-89.11-68.25-129.08-23.26-42.79-42.62-87.63-60.49-132.88-14.34-36.21-27.89-72.72-40.73-109.49,0,0,.94-.33.94-.33h0Z"/>
    <path d="M762.97,940.01c-6.34,41.54-12.45,83.43-12.31,125.52.11,6,.5,11.89,1.36,17.82,2.89,20.22,7.9,50.75,11.02,71.39,8.91,59.64,17.67,119.46,20.12,179.8.54,15.06.38,30.42-1.07,45.55-1.23,14.87-1.82,29.8-1.64,44.72.1,18.17,1.68,35.84,1.55,54.24-.15,12.52-2.19,25.45-7.44,36.97-4.29,6.46-8.63,12.88-12.96,19.31,0,0-12.84,19.04-12.84,19.04l-1.09,1.01c.08-.05-.04.02-.07.04,0,0-.13.09-.13.09-.07.05-.1.09-.07.02.03-.06.14-.28.15-.64.02-.35-.14-.7-.21-.79,1.4,1.07,4.83,2.02,7.06,2.46,9.37,1.49,17.37-5.46,24-11.4,3.46-3.25,6.72-6.74,10.11-10.24,1.66-1.59,3.06-3.33,4.1-5.41,7.43-15.05,11.64-31.54,16.24-47.65,0,0,.78.18.78.18-3.79,16.52-7.42,33.28-14.37,48.83-1.04,2.27-2.57,4.45-4.32,6.28-3.12,3.63-6.26,7.38-9.71,10.89-7,7.03-15.97,14.89-26.74,13.87-2.65-.36-5.13-.78-7.72-1.69-5.34-1.64-7.4-6.79-2.03-10.19,0,0-1.09,1.01-1.09,1.01,7.28-11.65,17.37-27.4,24.59-38.79,0,0-.3.55-.3.55,2.19-5.31,3.82-10.81,4.72-16.49,2.74-17.6.42-35.31-.07-53.26-1.12-24.19.03-48.54,2.66-72.62,1.98-23.73.85-47.84-.64-71.65-3.3-47.97-9.43-95.76-16.01-143.4-3.28-23.86-6.92-47.64-9.92-71.61-.76-6.01-1.06-12.16-1.07-18.21.02-18.14,1.78-36.21,3.83-54.19,2.84-23.95,6.47-47.78,10.73-71.5,0,0,.79.14.79.14h0Z"/>
    <path d="M852.94,912.16c6.64,46.15,9.05,93.1,7.19,139.7-.52,12.72-1.77,26.56-3.59,39.21-4.42,29.43-8.53,58.87-10.8,88.56-4.23,51.8-3.64,104.37-6.48,156.27-1.3,21.91-2.21,44.74-1.94,66.67.25,33.3,2.06,66.72,4.94,99.89,1.68,20.43,4.25,40.71,5.85,61.18,2.46,21.76-12.89,41.37-31.11,51.27,0,0-.45-.78-.45-.78,3.05-2.05,5.88-4.46,8.56-6.97,7.82-7.39,14.36-16.86,16.84-27.28,1.84-7.04.87-14.14-.2-21.2-11.56-69.95-17.57-141.36-11.34-212.2,4.4-54.53,9.46-112.52,12.44-167.05,1.49-25.38,2.64-52.93,5.16-78.17,1.43-13.99,3.03-30.23,3.74-44.26,1.2-18.33,1.56-37.18,1.74-55.54.16-29.69-.51-59.42-1.46-89.21l.9-.09h0Z"/>
    <path d="M800.88,1546.4c9.45,43.88,20.64,104.98,32,147.58,10.54,36.16,21.95,72.25,33.86,108.02,5.98,17.84,12.07,35.64,18.95,53.11,7.38,17.52,13.88,35.7,19.06,53.91,12.34,42.43,20.68,86.48,26.22,130.3,3.82,31.13,6.3,63.17,7.14,94.45-3.78-31.07-8.08-62.68-13.39-93.52-9.97-55.39-22.13-110.97-42.11-163.63-14.69-35.01-26.57-71.11-37.52-107.41-8.07-27.31-16.28-54.59-22.67-82.36-9.52-46.4-15.95-93.45-21.55-140.46h0Z"/>
    <path d="M749.98,1870.58c14.61,48.71,25.6,98.56,41.54,146.7,1.93,5.65,4.12,10.85,6.53,16.34,15.69,35.7,31.61,71.25,45.58,107.74-19.92-33.67-37.83-68.36-54.43-103.75-2.54-5.43-5.1-11.28-7.05-16.98-9.03-25.73-15.06-52.35-20.58-78.83-4.75-23.59-8.85-47.29-11.6-71.21h0Z"/>
    <path d="M470.06,1870.53c11.29,40.38,16.48,81.65,19.47,123.26,2.72,41.62,1.78,83.32-4.27,124.81,0,0-1.1.03-1.1.03-1.74-40.27-2.58-84.06-5.61-124.11-2.19-35.98-6.58-87.47-9.59-123.88,0,0,1.09-.11,1.09-.11h0Z"/>
    <path d="M849.94,2138.21c19.29,3.6,38.51,3.87,57.65.05,6.34-1.22,12.65-2.87,19.31-4.47-20.11,17.72-55.2,20.71-76.96,4.43h0Z"/>
    <path d="M484.71,2133.78c2.62,23.03,2.58,46.26,1.42,69.38-1.27,23.11-3.89,46.2-9.02,68.81,2.73-45.25,5.31-92.88,7.6-138.18h0Z"/>
    <path d="M488.34,2257.82c6.82,18.19,13.27,36.93,19.77,55.25,2.22,6.59,4.84,12.92,6.8,19.63,2.45,9.02,2.95,18.6,1.25,27.82-1.48,8.16-4.71,16.11-9.09,23.11-2.02,3.33-4.63,6.89-7.01,9.96-15.08,19.23-26.86,35.27-31.97,59.71-1.71,7.37-2.58,15.53-3.97,22.98-3.61,18.06-9.12,42.94-27.54,51.3-21.62,9.6-63.4-14.87-79.24-29.75-.43-.48-1.02-1.11-1.44-1.61-.97-1.34-1.58-2.96-1.79-4.27-.92-5.34.06-10.8,1-15.8,3.31-15.71,8.98-30.53,15.37-45.15,13.57-27.9,35.63-51.44,43.01-81.7,1.7-7.04,2.35-14.25,1.62-21.42-2.61-23.1-5.96-46.34-9.81-69.33-2.56-15.32-5.33-30.67-8.93-45.75-1.52-5.99-3.02-12-5.47-17.63-.18-.42-.39-.76-.58-1.15,0,0-.29-.56-.29-.56,0,0-.31-.46-.31-.46-2.93-3.78-4.72-8.13-5.84-12.65-2.86-11.61-3.26-23.6-2.85-35.43,0,0,1,0,1,0,.54,7.77,1.49,15.54,3,23.11,1.61,7.6,3.66,16.1,8.86,21.84.99,1.23,1.86,2.83,2.57,4.24,5.86,12.67,9.07,26.35,12.46,39.78,5.5,22.94,9.89,46.09,13.56,69.38,1.23,7.77,2.3,15.55,3.25,23.4.95,8.41.21,16.98-1.8,25.14-7.72,31.41-30.87,55.38-45.44,82.96-3.35,6.92-6.39,14.05-9.29,21.16-2.71,6.96-12.75,32.24-8.09,37.51,7.35,8.04,16.59,14.39,25.86,20.09,10.69,6.29,22.38,11.59,34.78,13.08,31.83,3.14,36.06-39.53,37.99-62.76.97-11.98,3.19-24.02,7.6-35.31,5.81-15.03,15.83-28.08,25.72-40.4,7.02-8.52,12.8-18.35,15.11-29.22,2.42-10.88,1.05-22.18-2.51-32.7-6.84-22.54-12.79-45.22-18.28-68.12,0,0,.96-.29.96-.29h0Z"/>
  </g>
</svg>