<?xml version="1.0" encoding="UTF-8"?>
<svg xmlns="http://www.w3.org/2000/svg" viewBox="0 0 1175.44 2891.38">
  <defs>
    <style>
      .cls-1 {
        fill: #fef7e7;
      }
    </style>
  </defs>
  <g id="_Слой_6" data-name="Слой 6">
    <path class="cls-1" d="M298.39,628.95s107.73,89.29,201.2,73.29,209.47-70.57,248.14-73.29,104,0,104,0c0,0,74.96,31.76,105.08,120.67,0,0-71.48,114.52-141.18,114s-213.2,59-213.2,59c0,0-174.42,75.66-206.92,60s-45.19-35.48-45.19-35.48c0,0-3.95-78.39-51.92-91.52s-116.15,3.67-116.15,3.67c0,0,.02-232.99,116.15-230.33Z"/>
  </g>
  <g id="_Слой_5" data-name="Слой 5">
    <path d="M787.31,2270.45c-5.77,26.65-9.86,60.28.65,85.92,3.98,8.77,9.6,16.59,15.02,24.6,7.39,10.75,15.12,21.37,22.69,32.16,7.54,10.83,15.23,21.59,22,33.36,3.3,5.97,6.49,12.04,8.35,19.53,1.83,7.12.94,16.09-6.76,19.82-7.77,4-16.44,6.27-24.6,8.21-19.47,4.39-39.23,6.85-59.15,7.49,0,0-.18-1.19-.18-1.19,12.67-3.75,25.34-7.19,37.88-10.83,9.34-2.75,18.59-5.46,27.67-8.83,3.11-1.17,7.67-2.97,10.57-4.53,0,0,1.91-1,1.91-1,0,0,.24-.12.24-.12.17-.08.15-.1.26-.18.1-.03.07-.11.14-.13,2.6-7.78-11.61-31.83-16.03-39.61-13.25-22.71-29.11-43.79-41.71-67.01-10.1-17.84-10.29-39.62-8.14-59.24,1.5-13.18,4.19-26.13,8.05-38.76,0,0,1.15.33,1.15.33h0Z"/>
    <path d="M369.33,1864.18c12.35,44.4,24.19,88.77,38.62,132.47,1.98,5.94,4.28,12.61,6.39,18.55,13.09,37.56,24.39,75.75,33.81,114.4,6.25,26.26,12.43,52.48,14.09,79.65.38,5.19-.08,11.04-.53,16.26-2.88,33.62-16.41,69.15-46.64,87.2-9.35,5.51-19.5,8.69-29.49,11.74-6.48,1.92-12.95,3.64-19.46,5.13-28.88,7.05-58.31,11.03-87.05,18.08-2.36.71-4.73,1.36-6.8,2.56-.16.11-.31.23-.47.32,0,0-.3.39-.3.39-4.04,5.27,2.24,11,6.52,13.83,0,0-.54,1.07-.54,1.07-5.77-2.84-12.71-9.66-8.37-16.37.87-1.59,2.61-2.44,4.15-3.2,16.85-6.84,34.91-10.08,52.41-14.73,25.42-6.48,51.33-12.11,75.49-22.52,24.44-10.86,39.27-34.96,45.14-60.31,1.93-7.88,3.07-16.12,3.86-24.21.33-4.72.78-9.94.39-14.64-.36-6.52-1.17-13.04-2.13-19.53-9.65-58.42-25.81-115.66-43.18-172.21-16.1-50.25-27.28-101.91-37.08-153.7,0,0,1.18-.22,1.18-.22h0Z"/>
    <path d="M519.85,1508.22c14.65,53.99,26.07,108.47,42.85,161.71,3.64,11.21,7.89,21.82,13.23,32.11,5.08,10.45,10.66,22.21,15.34,32.84,12.87,29.26,25,59.26,35.89,89.31,5.13,14.71,10.52,29.37,14.4,44.48.13.48.22,1.03.3,1.57l-.89.11c-1.08-3.76-2.74-7.46-4.17-11.12-10.62-25.85-21.94-51.59-33.3-77.11-13.07-29.23-26.38-58.26-40.81-86.9-6.4-14.79-10.81-30.25-14.99-45.7-8.18-30.97-14.6-62.36-20.5-93.84-2.93-15.74-5.69-31.5-8.22-47.31,0,0,.89-.14.89-.14h0Z"/>
    <path d="M796.18,855.75c-1.64,34.46-7.79,68.52-17.62,101.59-1.61,4.94-3.42,10.91-5.32,15.71-2.59,7.01-5.47,14.13-8.93,20.74-4.75,8.96-8.99,17.89-12.21,27.74-8.85,26.18-14.32,53.62-18.42,80.98-2.94,20.77-5.22,41.81-4.61,62.83.19,6.12.7,12.38,1.9,18.39,0,0,.51,2.64.51,2.64,0,0-1.2.5-1.2.5-18.07-44.83-4.02-146.5,17.83-189.52,2.38-4.57,5.23-9.59,7.56-14.19,12.97-27.4,21.54-56.71,29.26-85.98,3.63-13.82,6.99-27.72,9.97-41.69,0,0,1.28.25,1.28.25h0Z"/>
    <path d="M460.57,509.67c3.46,15.89,2.62,31.44,4.23,47.2,2.32,12.91,5.18,25.61,9.61,38,1.36,3.94,2.99,7.82,4.92,11.78,0,0-.53.6-.53.6-12.26-12.4-18-29.6-21.37-46.32-1.65-8.49-.78-17.23-.3-25.79.6-8.55,1.51-17.07,2.65-25.57,0,0,.79.1.79.1h0Z"/>
    <path d="M654.62,344.51c11.98-28.12,13.75-63.52,4.12-92.55-10.94-29.18-34.77-52.23-60.3-69.3,0,0,6.22-4.25,6.22-4.25,1.2,5.13,3.77,10.74,7.44,13.52.39.31.84.7,1.18,1.11.29.44.31.31.68,1.12,0,.03.73,1.13-.02,3.42-.56,1.88-3.68,2.82-3.47,2.55-1.03.07-1.02,0-1.59-.11-.13-.03-.39-.12-.52-.16-.36-.13-1-.42-1.35-.6-4.7-2.46-9.55-5.25-14.22-7.67-5.36-2.82-10.77-5.53-16.23-7.94-6.17-2.61-12.59-5.42-19.2-6.01-11.33-.61-22.39-3.9-33.37-5.94-8.71-1.66-17.4-3.25-26.08-2.55-2.71.26-5.26.87-7.35,1.86,0,0-2.72-8.09-2.72-8.09,6.4-.92,13.2,1.38,17.78,5.92,2.68,2.5,5.83,7.88,8.06,10.87-20.83.3-51.82,3.65-68.17,17.24,0,0-2.71-5.74-2.71-5.74,0,0,17.38-2.39,17.38-2.39,0,0,14.05-1.93,14.05-1.93-16.58,10.2-34.54,21.44-45.32,38.09-2.27,3.63-3.82,7.57-4.46,11.8-2.67,15.28-2.3,30.92-1.14,46.37-1.49-8.79-2.44-17.69-2.76-26.64-.21-9.01-.34-18.32,2.12-27.08,5.81-16.37,22.51-30.27,36.34-40.16,0,0,2.09,5.55,2.09,5.55l-17.29,2.95-11.16,1.9s8.44-7.64,8.44-7.64c16.43-14.47,43.5-18.86,64.75-20.32,0,0-3.37,6.3-3.37,6.3-1.47-2.22-3.39-4.21-5.79-5.36-2.18-1.11-4.9-1.55-7.25-1.26,0,0-2.72-8.09-2.72-8.09,15.49-7.33,40.72.5,57,3.38,4.37.83,8.67,1.65,13.01,1.95,1.7.08,3.5.25,5.14.59,6.53,1.33,12.34,3.75,18.29,6.36,9.94,4.46,19.39,9.7,28.86,14.97,0,0,1.91,1.03,1.91,1.03,0,0,.37.19.37.19.04.02.09.04.04.02l-.23-.08c-.61-.13-.56-.18-1.6-.13.23-.27-2.86.66-3.41,2.52-.75,2.27,0,3.4-.03,3.36.23.52.37.68.39.72.14.19.25.34.4.49,0,0,.05.04.05.04.03.02,0,0-.04-.04-5.74-4.74-8.72-11.68-10.26-18.78,0,0-1.86-9.5-1.86-9.5,3.36,2.21,10.09,6.45,13.21,8.8,27.14,20.17,53.2,48.52,58.89,82.96,4.69,27.23.82,57.82-12.19,82.32h0Z"/>
    <path d="M487.37,231.83c-17.42,2.02-35.02,4.28-43.15,20.96,0,0-1.1,2.19-1.1,2.19-.32.77-1.18,2.77-1.5,3.51-.3.86-1.02,2.86-1.35,3.74-2.36,6.82-3.99,14.39-6.52,22.47l-.9.08c-.53-5.77-.85-12.07-.38-17.82,1.05-13.97,6.4-28.73,19.96-34.93,11.01-5.07,23.84-4.5,35.23-1.05,0,0-.28.86-.28.86h0Z"/>
    <path d="M495.92,226.27c-.58,8.06,22.97,7.57,28.71,7.49,32.5.53,79.69-29.14,103.11,5.36,2.54,3.93,4.52,7.9,6.58,12,12.31,25.18,16.3,54.11,13.5,81.87-1.45,14.31-4.55,28.54-9.19,42.05,0,0-.88-.17-.88-.17,4.02-22.17,5.99-44.89,3.58-67.34-2.32-22.38-9.31-44.39-21.11-63.48-2.95-4.64-7.24-8.4-12.34-10.44-10.5-4.21-22.12-2.58-33.03-.92-16.72,2.66-33.48,7.31-50.56,5.94-6.77-.55-31.78-2.73-29.16-12.75,0,0,.81.4.81.4h0Z"/>
    <path d="M427.96,288.29c.45,37.58-.77,77.14.09,114.72,1.24,29.5,5.82,66.05,28.35,87.16,3.26,3.07,6.98,6.27,10.63,8.85,13.98,10.47,30.55,16.9,47.55,20.64,1.22.28,4.27,1.03,5.44,1.38,1.9.55,4.05.7,6.04.76,16.59-.17,32.79-6.66,46.17-16.31,7.48-5.74,14.27-12.32,21.05-18.87,9.32-9.16,18.27-18.8,26.86-28.67.72-.81,1.44-1.79,2.04-2.71,7.77-11.86,13.67-25.25,15.56-39.4-.4,9.62-2.85,19.11-6.5,28.02-2.37,5.58-4.96,11.22-8.53,16.18-8.06,10.49-16.67,20.53-25.67,30.24-7.53,7.89-15.17,15.89-23.98,22.39-13.62,9.84-30.13,16.13-47.02,16.6-2.69.01-5.53-.24-8.17-.94-.99-.28-3.96-.96-5.01-1.2-16.81-3.6-33.27-9.69-47.53-19.5-3.89-2.8-8.12-5.97-11.63-9.24-1.47-1.42-4.03-3.65-5.39-5.18-15.6-16.47-21.9-39.22-24.71-61.06-2.45-19.23-1.88-38.61-1.05-57.86,1.35-28.71,3.08-57.38,5.43-86.02h0Z"/>
    <path d="M648.61,349.24c7.17-4.91,15.61-4.33,18.77,4.67.9,2.38,1.35,4.82,1.63,7.24,1.4,14.3-.93,28.51-4.35,42.37-2.22,8.22-5.99,16.48-11.94,22.74-6.02,6.03-14.33,3.67-17.99-3.44,0,0,.68-.59.68-.59,1.99,1.14,4.08,2.09,6.01,2.31,3.86.69,5.85-2.56,7.23-5.6.83-1.59,1.9-4.2,2.62-5.9,2.87-7.39,7.35-17.44,9.31-25.04,2.1-8.34,7.47-32.11.51-38.1-3.2-2.75-8.38-1.61-12.01.11,0,0-.47-.77-.47-.77h0Z"/>
    <path d="M621.74,464.34c2.7,12.15,3.88,23.59,5.61,35.35,1.24,7.17,1.98,14.95,5.44,21.3,10.12,13.56,23.16,23.53,34.26,36.91,0,0-.46.77-.46.77-4.15-2.41-8.2-4.96-12.21-7.6-7.95-5.39-15.72-11.08-22.62-17.82-2.61-2.57-5.08-5.26-7.05-8.38-3.06-5.34-4.02-11.59-4.77-17.53-1.03-9.57-.93-19.2-.42-28.79.31-4.79.73-9.56,1.31-14.32,0,0,.89.1.89.1h0Z"/>
    <path d="M270.37,629.8c22.31-13.77,45.65-26.37,68.98-38.3,23.61-11.82,47.23-23.43,72.23-32.27,41.06-13.89,31.3-2.66,30.22,30.48-.57,24.82,10.13,42.97,32.21,54.34,3.47,2.04,7.23,3.69,10.83,5.48,1.37.57,5.27,2.19,6.71,2.76.55.25,1.68.65,2.26.84,2.24.69,4.62,1.62,6.85,2.26,1.56.42,5.44,1.4,6.95,1.8,1.46.26,5.5,1.01,7.02,1.29,2.73.26,6.7.84,9.41.82,0,0,4.7.12,4.7.12,1.64-.1,5.42-.26,7-.38,6.95-.75,13.79-2.31,20.35-4.66,1.43-.62,5.1-1.94,6.45-2.66,1.48-.77,3.75-1.81,5.23-2.56,4.3-2.44,8.84-5.29,12.82-8.2,23.08-17.85,41.96-40.45,62.56-61.12,4.62-4.71,9.28-9.41,14.24-13.96,4.62-4.11,9.26-8.52,15.02-11.32,1.06-.45,2.19-.93,3.9-1.13,0,0,.68-.04.68-.04,0,0,.32,0,.32,0,0,0,.17,0,.17,0,5.02.21,9.94,1.13,14.83,2.12,27.59,6.15,54.68,18.84,74.03,39.7,0,0-.76.8-.76.8-24.71-19.71-57.04-31.31-88.14-32.83,0,0-.14,0-.14,0-.03,0,.01.01.01.01.02,0,.05,0,.07,0,.09,0-.33.12-.77.35-4.44,2.56-8.1,6.4-11.86,10.04-22.85,23.4-44.07,49.21-69.76,69.95-7.25,5.85-15.32,11.15-23.74,15.22-1.71.78-4.2,1.89-5.91,2.66-.7.27-5.29,1.87-6.12,2.17-1.36.52-3.57,1.02-5,1.41-1.68.42-3.34.94-5.06,1.17-3.08.59-7.19,1.2-10.29,1.33-2.93.34-7.36.16-10.34.15-1.81-.18-5.94-.57-7.68-.77-1.61-.28-5.9-1.09-7.55-1.39-1.62-.43-5.82-1.53-7.39-1.94-1.55-.51-5.6-1.92-7.19-2.46-2.68-1.01-5.48-2.29-8.15-3.37-2.03-1.02-5.85-2.88-7.87-3.88-6.5-3.58-13.12-7.44-19.17-11.74-17.45-12.55-25.42-31.2-26.26-52.31-.41-6.68-.12-13.39-.1-19.86-.08-3.28.06-7.58-1.11-10.11.05.15.18.28.24.4.38.49.71.55.66.57-1.17-.02-2.65.24-4.27.64-2.9.74-5.93,1.74-8.92,2.84-27.21,10.64-53.83,23-80.75,34.93-23.95,10.65-47.84,21.49-72.17,31.55l-.5-.98h0Z"/>
    <path d="M771.38,589.03c40.15,3.78,78.43,21.69,109.64,46.93,30.96,26.04,52.24,61.16,70.28,96.76,0,0,.31.65.31.65l-.19.8c-5.24,20.92-13.21,41.19-24.24,59.75-13.03,21.2-30.53,40.22-52.25,52.74-15.28,8.74-32.61,13.7-50.04,15-.33-.07-1.02-.23-1.35-.31-6.98-1.94-13.2-6-18.85-10.43-1.74-1.56-3.56-3.05-5.19-4.71-1.13-1.17-3.08-3.26-4.18-4.41,0,0-.54-.67-.54-.67l-4.33-5.34c-.77-1.02-4.17-6.1-4.82-7.02-.55-.92-1.97-3.44-2.53-4.4-2.63-4.34-4.66-8.94-6.8-13.5-1.34-3.54-2.91-7.33-4.21-10.88-1.09-3.7-2.85-9-3.82-12.69-1-4.3-1.99-8.58-2.89-12.87,0,0,1.15-.33,1.15-.33,4.13,9.95,8.26,20.1,13.49,29.52.9,1.66,2.1,4.06,3.11,5.61,2.3,3.6,4.34,7.34,6.91,10.69,1.05,1.46,2.58,3.74,3.76,5.07,0,0,3.96,4.86,3.96,4.86.32.37,4.6,4.82,4.81,5.07,1.99,1.75,4.23,3.96,6.37,5.51,0,0,2.38,1.88,2.38,1.88,0,0,2.49,1.66,2.49,1.66,3.76,2.48,8.02,4.68,12.42,5.73.03,0,.06,0,.08.01,0,0-1.62-.06-1.62-.06,14.53-1.93,28.66-6.08,41.53-12.94,26.66-13.68,46.51-36.98,61.79-62.48,7.75-12.92,14.57-26.81,19.12-41.17,0,0,.13,1.45.13,1.45-7.58-18.14-17.7-35.3-30.31-50.36-32.32-36.64-72.97-65.31-117.96-84.06-9.08-3.75-18.36-7.16-27.81-9.89,0,0,.18-1.19.18-1.19h0Z"/>
    <path d="M284.09,629.54c-20.15,5.98-39.43,18.33-50.63,36.3-5.41,9.02-10.39,18.94-14.94,28.39-23.13,47.84-33.7,102.03-17.98,153.79,0,0-7.78-4.23-7.78-4.23,1.61-.54,2.98-.91,4.47-1.33,21.71-5.88,44.49-7.84,66.87-4.95,20,2.7,40.04,10.11,54.83,24.18,0,0,1.58,1.57,1.58,1.57,0,0,1.58,1.56,1.58,1.56,1.58,1.72,2.91,3.43,4.31,5.05,0,0-.87.83-.87.83-5.64-4.57-11.43-8.64-17.86-11.8-29.24-14.65-63.54-13.16-94.92-7.25-7.45,1.42-15.25,3.42-22.51,5.57,0,0-1.52-6.01-1.52-6.01-15.23-59.59,1.35-122.36,32.5-173.86,1.24-1.99,4.94-8.44,6.26-10.46,6.55-10.65,15.84-19.47,26.25-26.04,9.34-5.74,19.46-10.06,30.11-12.49,0,0,.26,1.17.26,1.17h0Z"/>
    <path d="M292.36,788.27c7.65,27.15,26.09,49.32,51.96,60.47,10.63,4.82,22.2,7.76,33.69,9.65,24.33,4.01,48.23,3.14,73.22,2.85,0,0,.15.79.15.79-4.53.77-14.06,2.53-18.43,2.99-2.32.3-7.05.93-9.27,1.16-1.88.13-7.35.57-9.32.71-4.13.37-9.83.33-14.01.49-2.76-.07-8.09-.22-10.91-.29,0,0-6.22-.53-6.22-.53-18.61-1.6-37.34-6.53-53.18-16.68-14.12-8.92-25.57-22.08-32.17-37.44-3.27-7.67-5.6-15.76-6.3-24.12,0,0,.8-.04.8-.04h0Z"/>
    <path d="M570.8,859.87c38.69,7.62,81.28,9.9,118.21-5.71,12.12-4.91,23.05-11.94,33.37-20.1,13.57-11.22,25.37-24.99,36.51-39.98l.8.4s-3.27,6.12-3.27,6.12c-.63,1.14-1.87,3.53-2.45,4.59-1.76,2.81-4.66,7.56-6.45,10.31-1.25,1.69-4.84,6.65-6.16,8.42-2.1,2.57-4.6,5.39-6.76,7.95-14.9,16.27-33.96,28.77-55.07,35.32-35.59,10.77-74.73,6.85-109.09-6.51,0,0,.35-.83.35-.83h0Z"/>
    <path d="M320.92,849.12c19.9,49.73,33.29,101.9,41.1,154.81,1.05,7.32,2.31,17.48,2.89,24.75.35,3.11.83,9.37.97,12.49,1.84,28.99-.79,58.31-4.28,87.09-4.98,36.66-12.03,73.15-23.31,108.47,0,0-1.28-.23-1.28-.23,8.68-54.28,15.25-109.09,16.6-164.08.2-4.01-.03-14.12-.07-18.29-.13-5.62-.72-12.62-.96-18.27-2.04-25.99-5.77-53.06-10.28-78.72-3.44-19.95-7.49-40.23-11.73-60-3.4-15.95-6.99-31.86-10.9-47.69,0,0,1.26-.33,1.26-.33h0Z"/>
    <path d="M828.96,863.62c21.38,33.98,50.78,64.22,83.58,87.25,1.28.82,7.13,5.01,8.26,5.75,0,0,.42,1.95.42,1.95,3.06,15.51-2.83,30.52-9.58,44.08-2.31,4.42-4.71,8.6-7.51,12.77,0,0,.65-1.25.65-1.25-4.78,13.34-12.03,32.34-17.09,45.78-9.6,24.71-19.13,49.46-30.05,73.64-5.97,13.22-15.23,24.85-24.76,35.61-5.48,6.09-11.2,11.94-17.25,17.43,10.12-12.58,19.98-25.67,28.02-39.64,7.24-11.73,12.98-31.65,17.88-44.7,5.45-15.41,19.16-54.15,24.58-68.96,0,0,8.36-22.92,8.36-22.92l.24-.66c2.65-3.82,5.08-7.99,7.26-12.13,5.7-11.25,11.41-24.28,9.39-36.95,0,0,2.08,3.11,2.08,3.11,0,0-6.68-4.99-6.68-4.99-31.88-23.97-61.68-58.54-77.81-95.17h0Z"/>
    <path d="M955.62,741.62c28.32,36.4,54.14,74.78,74.84,116.16,5.11,10.42,9.87,21.08,13.6,32.26,2.84,7.93,4.77,17.31,6.44,25.64,1.62,8.35,3.43,17.31,4.62,25.68,1.46,10.26,2.75,20.89,1.71,31.36-.49,4.55-1.51,9.22-2.69,13.52-3.63,14.2-9.08,27.95-15.04,41.2-14.51,31.71-32.3,62.18-55.23,88.59-22.79,25.53-44.89,52.39-65.72,79.52-3.5,4.55-6.95,9.14-10.33,13.77-3.3,4.67-6.96,9.18-9.53,14.3,2.01-5.39,5.32-10.23,8.18-15.2,3-4.91,6.11-9.76,9.25-14.58,18.95-28.84,39.6-56.7,61.68-83.23,21.19-26.5,38.01-56.56,51.77-87.58,4.5-10.23,8.85-20.86,12.08-31.47,1.23-4.49,3.43-11.58,4.15-16.08,2.61-16.34-.96-32.95-3.43-49.45-.71-4.16-2.22-12.71-3.01-16.87-3.09-16.59-9.45-32.23-16.22-47.75-18.99-41.69-42.71-81.01-67.13-119.78h0Z"/>
    <path d="M196.27,859.3c4.32,42.55,4.85,85.41,9.57,127.74.41,3.6,1.36,8.34,1.88,11.97,1.23,17.94-2.52,35.6-4.43,53.21-3.8,29.16-6.3,59.01-8.89,88.32-2.31,23.72-5.62,48.2-8.01,71.91-.99,10.2-2.17,21.29-2.57,31.54-1.3,29.28-2.24,58.92-3.68,88.31-.71,13.32-1.42,26.98-2.52,40.3,0,0-1.3.03-1.3.03-2.7-21.41-4.26-42.9-5.34-64.43-1.1-27.02-2.32-54.16,0-81.16,2.88-26.86,7.5-53.43,12.28-79.97,2.81-15.11,6.54-32.36,9.27-47.47,5.53-31.3,10.01-63.72,6.31-95.41,0,0-.67-3.62-.67-3.62,0,0-.94-3.44-.94-3.44-2.36-7.97-3.63-16.35-4.56-24.59-1.32-13.51-1.79-27.04-1.84-40.59-.05-24.29,1.05-48.56,4.16-72.68,0,0,1.3.02,1.3.02h0Z"/>
    <path d="M332.94,922.66c-1.5,46.24-4,92.46-7.82,138.57-2.99,32.41-5.83,64.97-13.08,96.88-7.88,31.61-19.16,62.29-30.89,92.55-9.99,25.79-20.8,51.17-29.63,77.35-2.58,8.09-5.37,16.32-5.87,24.83,0,0-.05,1.7-.05,1.7,0,0-1.29.18-1.29.18-1.04-4.7-.86-9.51-.51-14.21,1.33-14,4.72-27.74,8.39-41.23,12.13-44.71,29.7-87.5,45.27-130.96,2.25-6.26,4.12-13.11,5.8-19.49,8.59-37.99,12.99-77.15,17.54-115.89,4.24-36.7,7.64-73.52,10.83-110.35,0,0,1.3.07,1.3.07h0Z"/>
    <path d="M345.29,1236.62c86.99,21.02,184.03,34.75,271.82,12.3,12.68-3.3,25.09-7.57,37.52-12.3-6.98,4.33-14.4,8.48-21.88,11.99-2.72,1.45-10.83,4.63-13.82,5.92-2.57,1.04-6.8,2.4-9.46,3.36-47.74,16.02-99.5,17.24-149.09,10.73-39.46-5.55-78.77-15.44-115.08-32h0Z"/>
    <path d="M338.24,1245.71c-5.11,47.4-10.62,95.1-10.42,142.74.03,3.78.24,7.91.53,11.69.39,4.3.81,8.4,2.05,12.15,4.42,12.08,24.44,14.62,36.02,16.87,37.86,5.61,71.68,10.64,102.22,36.52,8.7,6.77,19.61,15.18,28.42,21.73,6.33,4.51,12.5,9.63,19.5,12.96,0,0,.13,1.19.13,1.19-.79,0-1.11-.09-1.76-.24-3.46-.91-6.74-2.38-9.98-3.86-14.56-6.86-28.3-15.3-41.86-23.91-9.77-6.54-19.47-12.3-30.46-16.43-24.7-9.85-54.21-13.71-80.15-20.43-12.15-3.3-27.04-8.8-30.75-22.49-1.44-5.71-1.66-11.06-1.88-16.6-.32-19.16,1.58-38.3,3.53-57.19,2.68-23.85,6.03-47.56,9.73-71.25,1.27-7.88,2.57-15.76,3.95-23.63,0,0,1.19.18,1.19.18h0Z"/>
    <path d="M441.15,1397.12c-2.17,12.27-1.81,27.65,8.2,36.26,3.17,2.72,7.01,4.21,10.93,5.66,8.66,3.05,17.71,5.04,26.46,8.62,17.89,6.94,29.52,20.07,35.79,38.06.73,1.92,1.34,4.2,2.06,6.15.12.31.13-.05-.35-.49-.13-.1-.26-.2-.39-.31-.15-.1-.32-.15-.42-.23-.3-.11-.43-.17-.53-.18-.14-.03.3-.1.8-.25,4.39-1.55,8.51-4.35,12.55-7.01,7.35-4.96,14.74-10.61,23.05-15.79,17.97-11.14,36.84-20.51,56.01-29.35,27.78-12.52,56.69-22.99,86.6-29.45,30.37-6.31,62.88-9.13,92.78.85,0,0,6.9,2.64,6.9,2.64,0,0-8.71,6.34-8.71,6.34-.05-3.79-.22-7.79-.43-11.69-1.16-19.62-3.14-39.37-7.62-58.54-1.1-4.74-2.53-9.6-4.09-14.21-.9-2.85-2.17-5.5-3.25-8.3,0,0,.95-.55.95-.55,6.83,12.22,10.92,25.94,14.05,39.5,4.1,17.99,6.54,36.3,7.75,54.71-30.7-11.65-64.7-7.88-96.04-.83-49.09,11.91-95.9,32.59-139.64,57.65-11.94,6.91-22.57,16.17-35.29,21.88-5.59,2.45-11.99,2.48-13.49-4.96,0,0-.47-1.64-.47-1.64-4.52-17.12-14.82-30.84-31.34-37.9-8.3-3.8-17.22-6.24-25.74-9.93-15.23-5.9-21.12-17.3-20.42-33.31.24-4.65.97-9.25,2.3-13.74,0,0,1.05.33,1.05.33h0Z"/>
    <path d="M183.17,1364.5c-2.23,18.3-4.5,36.47-5.94,54.79-.53,7.6-.82,15.3-.49,22.87.7,9.78,3.34,19.58,6.48,28.91,3.23,9.29,7.5,18.54,12.71,26.76,3.64,5.65,7.25,10.31,13.63,12.75,13.04,5.26,27.92,8.72,41.97,7.54,3.37-.38,7.43-1.26,9.6-3.21,1.34-1.39,2.27-2.85,2.52-3.61.2-.76.29-.64-.09-1.38-.48-.89-2.22-2.11-3-2.51,0,0,4.32.3,4.32.3-.46.11-.72.16-1.06.22-19.29,3.36-42.26-1.56-49.98-21.71-3.46-8.76-3.26-18.18-3-27.44.37-7.08,2.64-24.7,13.42-20.11,0,0-.4.81-.4.81-9.49-3.01-9.71,13.21-9.62,19.24.44,18.12,3.46,35.55,23.26,41.27,8.23,2.31,17.19,2.08,25.49.28,0,0,.24-.06.24-.06,0,0,.2.09.2.09,9.56,4.29,10.94,12.58,3.88,20.16-3.81,4.1-9.44,5.54-14.75,6.24-15.77,1.79-40.51-2.98-53.67-12.01-8.3-6.86-13.19-16.79-17.59-26.38-6.27-14.55-10.71-30.1-11.22-46.01,0-5.3.32-10.58.87-15.83,2.28-20.97,6.56-41.64,11.34-62.16,0,0,.87.21.87.21h0Z"/>
    <path d="M210.25,1411.93c13.29,12.94,25.12,27.61,34.05,43.96,4.16,8.65,9.24,18.63,17.87,23.4.68.33,1.3.54,1.7.61.41.08.49-.05.16-.01-.31,0-1,.3-1.24.54-.06.02-.11.1-.14.13-.03,0-.04,0-.04.03,0-.05,0-.08.03-.12.02-.03.04-.16.07-.23.03-.07.05-.12.02-.18.58-4.73.21-10.42-.08-15.36-.44-7.48-1.27-15.1-2.08-22.6-2.71-22.73-5.94-45.56-10.94-67.91-2.13-9.28-4.54-18.68-8.71-27.28,0,0-.86-1.75-.86-1.75,0,0,.78-.63.78-.63,19.27,25.06,29.31,87.4,31.78,119.53.3,5.2.51,10.41.05,15.7-.17,1.13-.4,2.98-.88,4.04-4.94,11.88-18.02,2.49-23.19-4.23-3.38-4.07-6.07-8.64-8.18-13.45-3.7-9.72-8.56-18.79-13.9-27.68-5.31-8.87-11.03-17.53-17.1-25.91l.8-.6h0Z"/>
    <path d="M812.99,1190.01c-21,4.59-42.41,8.01-63.62,11.31-11.54,1.72-23.58,3.54-35.07,5.46-3.06.57-5.98,1-8.83,1.75-4.92,1.51-9.51,4.29-13.79,7.28-11.48,8.29-27.61,24.12-28.42,38.74.03.81.03,1.68.24,2.36.01.16-.05.01-.14.03-.11-.01-.02.04.22.18,4.64,1.11,10.81-1.21,15.5-2.84,1.93-.72,4.02-1.62,5.9-2.5,0,0,8.02,11.69,8.02,11.69-.16.11-.49.36-.75.56-6.57,5.26-12.56,11.46-17.28,18.43-3.1,4.82-5.67,10.07-6.6,15.73-1.56,10.14.45,17.23,12.36,13.54,0,0,.48.88.48.88-4.26,2.25-10.38,3.39-13.99-.59-3.33-3.84-3.45-9.32-3.31-14.09,1.17-16.29,12.31-30.15,24.09-40.62,0,0,.94,1.37.94,1.37-6.38,3.46-13.11,6.43-20.33,7.55-9.15,1.43-15.21-2.77-14.87-12.41.29-21.99,31.31-51.39,52.24-54.9,16.52-2.71,33.22-3.93,49.87-5.52,19.02-1.7,38.05-3.07,57.1-4.38,0,0,.07,1,.07,1h0Z"/>
    <path d="M750.3,1255.73c-.03.29-.11.31-.14.38-.09.12-.19.22-.28.32-.18.17-.82.76-1.04.94-2.47,2.09-7.27,5.9-9.83,7.97-11.14,8.94-22.42,18.05-32.6,27.94-4.93,4.91-9.75,9.87-13.59,15.54-1.8,2.72-3.09,5.12-3.7,8.14-.39,1.43-.65,3.56-.38,4.68.04.1.08.03-.05-.23-.11-.25-.46-.61-.75-.79-.64-.34-.44-.15.14-.29,2.7-.59,5.73-2.29,8.05-3.91,10.62-2.95,21.33-6.5,31.56-10.65,6.5-2.76,13.88-5.67,18.83-10.36,6.45-7.79,14.71-13.96,23.85-18.18.96-.42,2.02-.9,3.1-1.29,0,0,5.92,14.42,5.92,14.42-21.48,10.54-50.04,31.92-28.01,45.04,1.61.71,3.37.89,4.45.66.88-.2,1.06-.32,1.39-.9.35-.59.73-1.11.88-1.7.65-2.8,2.61-5.96,3.88-7.86,3.7-5.49,7.62-10.24,11.65-15.33,0,0,5.92-7.3,5.92-7.3,6.49-8.16,16.11-14.13,25.31-17.94,22.79-9.48,47.67-13.3,67.91-27.88,9.82-6.93,17.91-16.12,23.94-26.59,3.08-5.28,5.72-10.89,7.95-16.69l.86.26c-12.63,42.9-40.55,57.57-80.29,70.8-11.54,4.21-23.48,8.48-33,16.43-4.19,3.33-8.78,9.69-12.08,13.95-4.56,6.18-9.69,12.14-13.21,18.93-.5,1.36-.88,3.14-1.69,4.42-4.93,10.11-19.22,6.59-25.01-.84-4.11-4.98-6.12-11.72-5.31-18.13.51-3.25,1.95-6.23,3.67-8.9,5.29-7.91,13.02-13.77,20.81-18.96,5.25-3.42,10.67-6.51,16.32-9.25l.61,1.49c-6.66,2.6-12.98,6.45-18.36,11.22-2.85,2.33-4.91,5.46-7.84,7.71-2.98,2.28-6.26,4.03-9.57,5.63-13.02,6.07-28.36,10.66-41.47,13.89-12.62,7.73-20.57,5.1-14.38-10.58,2.05-4.5,5.16-8.3,8.39-11.88,16.11-17.12,36.03-30.04,55.13-43.51.27-.18.98-.74,1.22-.98.01,0-.02-.04-.04.18h.9Z"/>
    <path d="M794.62,1421.57c4.86,35.05,8.12,70.29,10.52,105.58,2.32,35.36,4.01,70.74,2.9,106.2-.57,17.64-2.59,35.47-4.47,53.03-3.63,35.1-5.54,70.4-5.58,105.68-.08,15.29.32,30.97,1.13,46.25.66,10.59,1.38,22.07,3.2,32.53,11,54.18,19.58,109.88,17.68,165.32-1.08,24.42-4.14,48.87-7.69,72.96-4.45,30.58-9.93,61.17-15.72,91.53-2.82,14.52-7.41,37.49-10.3,52,0,0-1.24,6.5-1.24,6.5-.45,2.17-.72,4.32-1.09,6.5l-1.1-.08c.4-8.91,1.48-17.68,2.44-26.47,7.02-60.91,16.73-122.68,21.7-183.8,5.22-61.21-3.06-122.7-12.09-183.32-.18-1.97-.58-4.84-.65-6.78-.42-6.13-.7-13.94-.73-20.07-.22-40.98,2.09-91.54,3.14-132.64.43-17.61,1.26-35.38,1.87-53,.96-43.95-.74-87.96-1.91-131.92-1.07-35.27-2.42-70.55-3.1-105.91,0,0,1.1-.09,1.1-.09h0Z"/>
    <path d="M650,1853.02c-.97,64-1.29,128.26,8.36,191.5,3.22,21.15,7.14,42.23,11.96,63.1,13.42,59.44,34.77,117.08,43.5,177.62,1.51,10.75,2.69,22.05,2.69,32.9-.5,28.8-7.48,57.35-11.16,85.66-2.51,20.35-4.72,41.78,1.91,61.47,7.12,21.09,25.92,31.12,46.88,35.08,0,0-.15,1.19-.15,1.19-34.62-1.57-55.46-20.7-60.1-55.06-4.59-36.16,4.2-72.18,8.32-107.8,1.02-8.46,1.91-17.33,1.77-25.86,0-4.75-.37-10.86-.76-15.62-3.17-35.3-10.71-70.25-17.33-105.07-9.39-49.27-23.41-97.43-35.88-145.99-3.45-14.03-5.96-28.39-7.39-42.74-3.1-32.24-2.72-64.82-.41-97.08,1.46-17.72,3.34-35.94,6.58-53.44,0,0,1.19.13,1.19.13h0Z"/>
    <path d="M332.29,1434.62c3.33,87.71,2.76,175.49,10.82,262.84.57,7.42,2.08,18.46,2.98,25.93,4.97,34.72,10,69.47,16.6,103.92.61,3.14,1.99,9.74,2.71,12.88.97,4.28,1.97,8.56,3.33,12.75-3.96-7.91-6.76-16.35-9.52-24.73-8.03-25.24-14.09-51.1-19.41-77.02-3.5-17-6.9-35.08-8.94-52.36-1.6-12.77-2.92-26.91-3.81-39.67-4.7-74.85-3.02-150.05,5.24-224.55h0Z"/>
    <path d="M537.74,1631.62c2.7,26.03,3.78,52.39,3.95,78.57,0,32.87-1.44,66.01-6.89,98.52-.94,6.59-2.99,15.41-4.4,21.95-.97,4.61.16,8.55,2.06,13.1,2.36,5.47,5.64,11.26,8.55,17.3,5.99,12.06,10.51,25.17,13.27,38.44,8.07,39.45,3.35,80.15-3.59,119.35-4.91,27.21-10.41,54.3-12.48,81.84-4.24,50.24,3.24,100.8,13.83,149.93-27.89-84.15-29.98-147.46-13.51-233.83,1.52-9.63,2.99-19.22,4.17-28.87,3.88-34.63,5.27-70.59-5.76-104.05-2.96-9.04-6.98-17.66-11.24-26.26-4.29-8.69-9.13-18.79-6.63-29,.83-3.57,2.75-11.21,3.61-14.78,12.38-59.72,14.38-121.32,15.05-182.22h0Z"/>
    <path d="M336.96,2354.79c-8.37,4.8-17.16,8.73-26.43,11.55-6.44,1.95-13.64,3.48-20.6,2.86-.31,0-.63,0-.72.05-.11.03-.04.09.29-.11.33-.18.67-.72.72-.98.07-.27.05-.27.1-.15.08.15.16.38.36.67,9.26,11.63,34.2,14.06,48.55,15.11,30.17,2.22,61.44-2.04,90.31-11.8,8.91-2.65,18.57-5.47,27.55-7.83,16.05-4.34,32.65-7.69,49.08-10.19,16.23-2.5,32.58-4.58,48.99-5.56,9.54-.86,14.77-12.4,16.27-21.09,1.07-6.19.47-12.7-1.36-18.74-2.2-6.41-5.04-12.98-7.82-19.27-5.82-12.94-12.11-25.63-18.42-38.39,0,0,.93-.59.93-.59,8.76,11.34,16.75,23.28,23.97,35.66,4.8,8.6,10.07,17.21,12.39,26.96,3.35,15.81-.55,34.63-15.05,44.06-2.89,1.84-6.57,2.99-10.22,3.2,0,0-.88.06-.88.06l-1.75.11c-2,.11-15.22,1.09-17.57,1.25-31.68,2.61-63.33,6.56-94.64,12.13-24.46,5.21-48.45,12.12-73.18,16.31-19.24,3.27-38.97,4.65-58.13-.64-9.67-2.81-21.2-7.34-26.57-16.68-3.42-6.28.57-12.74,7.9-11.38,2.62.4,5.32.58,7.98.41,3.37-.14,6.84-.56,10.16-1.14,9.12-1.6,18.26-4.1,27.33-6.85l.45,1h0Z"/>
    <path d="M514.6,317.82c1.78,21.34.32,52-10.64,70.74-.16.29-.83,1.45-.97,1.73-.1.15-.01-.02-.04-.12-.03-.03,0-.25-.04-.37-.08-.22-.1-.36-.23-.5,0,0-.03,0-.02.02.38.57.83.77,1.44,1.15,3.16,1.79,6.53,3.2,9.87,4.72,3.91,1.77,7.87,3.51,11.79,5.47-2.19-.13-4.36-.38-6.51-.67-5.45-.75-10.84-1.76-16.1-3.45-3.15-.92-7.11-3.03-6.89-6.84.03-.75.27-1.59.53-2.25,1.98-4.48,3.79-8.91,5.14-13.62,5.16-18.35,7.23-37.52,12.68-56.01h0Z"/>
  </g>
</svg>